# xmcd
#
# Track frame offsets:
#	150
#	30268
#	56648
#	78457
#	105054
#	133812
#	165035
#	195981
#	226688
#
# Disc length: 3337 seconds
#
# Revision: 1
# Processed by: cddbd v1.5.2PL0 Copyright (c) Steve Scherf et al.
# Submitted via: audiograbber 1.83.01
#
DISCID=550d0709
DTITLE=Mats Ingvarssons - Hope
DYEAR=2014
DGENRE=Blues
TTITLE0=Afrotoo
TTITLE1=Take Cover
TTITLE2=I Just Want To Make Love To You
TTITLE3=Fresh ´N Bone
TTITLE4=In My Dreams
TTITLE5=Loser
TTITLE6=Blues For CM
TTITLE7=Snorkeling
TTITLE8=When Did You Leave Heaven
EXTD=
EXTT0=
EXTT1=
EXTT2=
EXTT3=
EXTT4=
EXTT5=
EXTT6=
EXTT7=
EXTT8=
PLAYORDER=
